<?xml version="1.0" encoding="utf-8"?>
<!-- Generator: Adobe Illustrator 23.0.5, SVG Export Plug-In . SVG Version: 6.00 Build 0)  -->
<svg version="1.1" id="Capa_1" xmlns="http://www.w3.org/2000/svg" xmlns:xlink="http://www.w3.org/1999/xlink" x="0px" y="0px"
	 viewBox="0 0 283.5 283.5" style="enable-background:new 0 0 283.5 283.5;" xml:space="preserve">
<style type="text/css">
	.st0{fill-rule:evenodd;clip-rule:evenodd;fill:#00B423;}
</style>
<path class="st0" d="M189.1,217.6c3.7-1.4,7.6-2.1,11.5-2.1c20.3,0,36.8,18.4,36.8,40.9v16.4c0,4.5-3.3,8.2-7.3,8.2H53.4
	c-4.1,0-7.3-3.7-7.3-8.2v-16.4c0-22.6,16.5-40.9,36.8-40.9c3.9,0,7.8,0.7,11.5,2.1c3.3-8.6,8.5-16.3,15.1-22.2
	c7.2-6.4,15.8-10.6,24.9-12V98.8c-12.1-0.7-35.8-4.4-51.8-22.3C60.6,52.1,62.3,11.9,62.4,10.2c0.2-4.2,3.2-7.5,6.9-7.7
	c1.5-0.1,37.6-2,59.6,22.4c9.5,10.5,14.5,23.9,17.2,36c1.5-2.4,3.3-4.7,5.2-6.9c18.4-20.4,48.5-18.8,49.7-18.8
	c3.7,0.2,6.7,3.5,6.9,7.7c0.1,1.4,1.5,34.9-16.9,55.3c-12.9,14.4-31.6,17.8-42.1,18.6v66.4c9.1,1.5,17.7,5.6,24.9,12
	C180.6,201.3,185.8,209,189.1,217.6z M60.7,256.4v8.2h162.1v-8.2c0-13.6-9.9-24.6-22.1-24.6c-4.2,0-8.4,1.3-11.9,3.9
	c-2,1.4-4.5,1.7-6.7,0.7c-2.2-1-3.8-3.1-4.4-5.7c-3.9-18.6-18.7-31.6-35.9-31.6s-32,13-35.9,31.6c-0.5,2.6-2.2,4.7-4.4,5.7
	c-2.2,1-4.7,0.7-6.7-0.7c-3.6-2.5-7.7-3.9-11.9-3.9C70.6,231.8,60.7,242.9,60.7,256.4z M118.5,36.5c12.2,13.6,15.1,34.6,15.7,46
	c-10.2-0.7-29.1-3.9-41.3-17.5C80.7,51.4,77.9,30.3,77.2,19C87.4,19.7,106.3,22.9,118.5,36.5z M193.1,51.8
	c-8.4,0.8-22.3,3.6-31.4,13.7c-9,10-11.6,25.6-12.3,35c8.4-0.8,22.3-3.6,31.4-13.7C189.8,76.7,192.4,61.2,193.1,51.8z"/>
</svg>
